<svg width="512" height="512" viewBox="0 0 512 512" fill="none" xmlns="http://www.w3.org/2000/svg">
    <circle cx="256" cy="256" r="256" fill="#FFD957" />
    <path
        d="M77.3515 187.576C79.3335 178.275 83.6278 168.018 85.421 159.148C87.0726 150.9 81.7874 142.923 73.0101 144.12C69.927 144.534 66.6552 147.023 65.1766 149.767C61.1497 157.297 56.4465 176.457 54.6848 185.295C45.0581 233.777 45.7974 286.183 57.1072 334.106C59.0734 342.45 61.0711 352.788 64.8935 360.429C70.1001 370.831 84.7603 367.114 86.4434 356.01C69.1877 302.28 65.5698 243.014 77.3515 187.56V187.576Z"
        fill="black" />
    <path
        d="M120.41 164.404C118.629 158.814 114.4 157.094 108.569 158.782C103.816 160.152 99.9621 172.461 98.6229 176.888C84.8224 222.367 85.0837 292.768 99.4232 338.12C101.595 344.967 105.384 354.378 114.547 352.037C127.269 348.773 116.98 333.533 114.922 326.208C103.441 285.506 104.519 228.164 115.053 187.334C116.751 180.758 122.435 170.789 120.41 164.404Z"
        fill="black" />
    <path
        d="M149.044 185.254C150.132 180.952 153.626 178.841 148.286 174.174C140.374 167.269 136.567 181.555 135.05 186.857C123.941 225.73 124.402 286.429 135.215 325.287C136.056 328.271 137.589 335.049 139.797 337.097C141.775 338.922 148.517 338.557 150.198 336.033C152.736 332.208 149.703 330.319 148.863 327.192C136.847 282.461 137.654 230.318 149.011 185.269L149.044 185.254Z"
        fill="black" />
    <path
        d="M433.839 322.99C431.857 332.291 427.562 342.549 425.769 351.419C424.118 359.667 429.403 367.643 438.18 366.447C441.263 366.032 444.535 363.543 446.014 360.799C450.04 353.269 454.744 334.11 456.505 325.272C466.132 276.79 465.393 224.383 454.083 176.46C452.117 168.116 450.119 157.779 446.297 150.137C441.09 139.736 426.43 143.453 424.747 154.556C442.002 208.287 445.62 267.553 433.839 323.006V322.99Z"
        fill="black" />
    <path
        d="M390.781 346.163C392.561 351.752 396.791 353.472 402.621 351.784C407.374 350.415 411.228 338.105 412.567 333.678C426.368 288.199 426.106 217.799 411.767 172.447C409.595 165.599 405.806 156.188 396.644 158.529C383.921 161.794 394.21 177.033 396.268 184.358C407.749 225.06 406.671 282.403 396.137 323.232C394.439 329.809 388.755 339.777 390.781 346.163Z"
        fill="black" />
    <path
        d="M362.146 325.313C361.058 329.614 357.564 331.726 362.904 336.392C370.816 343.297 374.624 329.011 376.14 323.71C387.249 284.836 386.788 224.137 375.975 185.279C375.135 182.295 373.602 175.517 371.393 173.47C369.415 171.644 362.674 172.009 360.992 174.533C358.454 178.359 361.487 180.248 362.328 183.375C374.343 228.105 373.536 280.249 362.179 325.297L362.146 325.313Z"
        fill="black" />
    <path
        d="M238 160.075V219.119C238 222.173 237.534 225.196 236.63 228.017C235.725 230.838 234.399 233.401 232.728 235.56L200 277.833M238 160.075C235.992 160.312 233.992 160.591 232 160.922M238 160.075C249.974 158.637 262.026 158.637 274 160.075M200 277.833L206.16 275.839C222.904 270.495 240.575 273.034 256 283C271.425 292.967 289.096 295.505 305.84 290.161L318.4 286.1M200 277.833L182.384 300.598C172.52 313.318 177.176 334.873 190.92 337.901C212.072 342.572 233.816 345 256 345C277.81 345.01 299.581 342.635 321.08 337.901C334.816 334.873 339.472 313.318 329.616 300.587L318.4 286.1M274 160.075V219.119C274 225.288 275.896 231.209 279.272 235.56L318.4 286.1M274 160.075C276.008 160.312 278.008 160.591 280 160.922"
        stroke="black" stroke-width="12" stroke-linecap="round" stroke-linejoin="round" />
</svg>