<svg width="416" height="248" viewBox="0 0 416 248" fill="none" xmlns="http://www.w3.org/2000/svg">
    <path
        d="M29.3515 59.5762C31.3335 50.2755 35.6278 40.0176 37.421 31.1476C39.0726 22.8998 33.7874 14.9232 25.0101 16.1196C21.927 16.5344 18.6552 19.0231 17.1766 21.7671C13.1497 29.297 8.44651 48.4568 6.68476 57.2949C-2.94194 105.777 -2.20264 158.183 9.10716 206.106C11.0734 214.45 13.0711 224.788 16.8935 232.429C22.1001 242.831 36.7603 239.114 38.4434 228.01C21.1877 174.28 17.5698 115.014 29.3515 59.5602V59.5762Z"
        fill="black" />
    <path
        d="M72.4097 36.4035C70.6295 30.8142 66.3995 29.0944 60.569 30.7823C55.8164 32.1518 51.9621 44.4611 50.6229 48.888C36.8224 94.3673 37.0837 164.768 51.4232 210.12C53.5953 216.967 57.3843 226.378 66.5465 224.037C79.2691 220.773 68.98 205.533 66.9221 198.208C55.4408 157.506 56.5187 100.164 67.0528 59.3342C68.7513 52.7576 74.4348 42.7891 72.4097 36.4035Z"
        fill="black" />
    <path
        d="M101.044 57.2536C102.132 52.952 105.626 50.8408 100.286 46.1741C92.3741 39.2693 88.5666 53.5552 87.0502 58.8568C75.9408 97.7303 76.4023 158.429 87.215 197.287C88.0556 200.271 89.5885 207.049 91.7972 209.097C93.7751 210.922 100.517 210.557 102.198 208.033C104.736 204.208 101.703 202.319 100.863 199.192C88.8468 154.461 89.6544 102.318 101.011 57.2695L101.044 57.2536Z"
        fill="black" />
    <path
        d="M385.839 194.99C383.857 204.291 379.562 214.549 377.769 223.419C376.118 231.667 381.403 239.643 390.18 238.447C393.263 238.032 396.535 235.543 398.014 232.799C402.04 225.269 406.744 206.11 408.505 197.272C418.132 148.79 417.393 96.3834 406.083 48.46C404.117 40.1164 402.119 29.7788 398.297 22.1372C393.09 11.7357 378.43 15.4528 376.747 26.5562C394.002 80.2866 397.62 139.553 385.839 195.006V194.99Z"
        fill="black" />
    <path
        d="M342.781 218.163C344.561 223.752 348.791 225.472 354.621 223.784C359.374 222.415 363.228 210.105 364.567 205.678C378.368 160.199 378.106 89.7987 363.767 44.4468C361.595 37.5995 357.806 28.1883 348.644 30.5292C335.921 33.7936 346.21 49.033 348.268 56.3581C359.749 97.0601 358.671 154.403 348.137 195.232C346.439 201.809 340.755 211.777 342.781 218.163Z"
        fill="black" />
    <path
        d="M314.146 197.313C313.058 201.614 309.564 203.726 314.904 208.392C322.816 215.297 326.624 201.011 328.14 195.71C339.249 156.836 338.788 96.137 327.975 57.2794C327.135 54.2952 325.602 47.5174 323.393 45.4697C321.415 43.6443 314.674 44.0094 312.992 46.5332C310.454 50.3587 313.487 52.2476 314.328 55.3746C326.343 100.105 325.536 152.249 314.179 197.297L314.146 197.313Z"
        fill="black" />
    <path
        d="M190 32.0748V91.1194C190 94.1727 189.534 97.196 188.63 100.017C187.725 102.838 186.399 105.401 184.728 107.56L152 149.833M190 32.0748C187.992 32.3124 185.992 32.5914 184 32.9221M190 32.0748C201.974 30.6365 214.026 30.6365 226 32.0748M152 149.833L158.16 147.839C174.904 142.495 192.575 145.034 208 155C223.425 164.967 241.096 167.505 257.84 162.161L270.4 158.1M152 149.833L134.384 172.598C124.52 185.318 129.176 206.873 142.92 209.901C164.072 214.572 185.816 217 208 217C229.81 217.01 251.581 214.635 273.08 209.901C286.816 206.873 291.472 185.318 281.616 172.587L270.4 158.1M226 32.0748V91.1194C226 97.2884 227.896 103.209 231.272 107.56L270.4 158.1M226 32.0748C228.008 32.3124 230.008 32.5914 232 32.9221"
        stroke="black" stroke-width="12" stroke-linecap="round" stroke-linejoin="round" />
</svg>